# xmcd CD database file
#
# Track frame offsets:
#	150
#	19360
#	45281
#	62975
#	77475
#	100199
#	123078
#	141333
#	159555
#	180042
#
# Disc length: 3072 seconds
#
# Revision: 0
# Processed by: cddbd v1.5.2PL0 Copyright (c) Steve Scherf et al.
# Submitted via: CDex 1.70
#
DISCID=740bfe0a
DTITLE=michael wollny and vincent peirani - tandem
DYEAR=2016
DGENRE=Jazz
TTITLE0=song yet untitled
TTITLE1=adagio for strings
TTITLE2=hunter
TTITLE3=bells
TTITLE4=did you say rotenberg?
TTITLE5=sirenes
TTITLE6=uniskate
TTITLE7=vignette
TTITLE8=fourth of july
TTITLE9=travesuras
EXTD=YEAR: 2016
EXTT0=
EXTT1=
EXTT2=
EXTT3=
EXTT4=
EXTT5=
EXTT6=
EXTT7=
EXTT8=
EXTT9=
PLAYORDER=
